<?xml version="1.0" encoding="UTF-8"?>
<svg version="1.1" xmlns="http://www.w3.org/2000/svg" width="500" height="500">
<path d="M0 0 C10.70081339 8.00579372 17.02576558 17.98258058 20 31 C20.58854984 36.27988539 20.52237889 41.5953143 20.4858551 46.90104294 C20.46837677 49.51679394 20.47621322 52.13146103 20.4901123 54.7472229 C20.51525863 60.28989231 20.50997192 65.83229693 20.5 71.375 C20.48844443 77.82468006 20.48964576 84.27382551 20.52406311 90.72343826 C20.53113148 93.29285322 20.5145233 95.86140868 20.49694824 98.43075562 C20.50265608 100.00901752 20.50947335 101.58727593 20.51757812 103.16552734 C20.50626358 103.87316223 20.49494904 104.58079712 20.48329163 105.30987549 C20.54456965 110.31357718 21.87642368 113.13869892 25 117 C28.29393037 119.25869511 30.76095624 119.07940001 34.5625 118.4375 C37.66222354 117.83044842 38.85390132 117.14778097 41.1043396 114.87142944 C43.44328644 111.32853705 43.50431977 109.28277073 43.51416016 105.06103516 C43.52484779 104.04269592 43.52484779 104.04269592 43.53575134 103.00378418 C43.5550009 100.76524552 43.54675183 98.52765638 43.5390625 96.2890625 C43.54898228 94.71787149 43.56092837 93.1466921 43.57479858 91.57553101 C43.60716252 87.43515102 43.61754851 83.295035 43.62164307 79.15454102 C43.63038832 72.56475275 43.66653319 65.97518221 43.7138176 59.38557053 C43.726196 57.10653918 43.72566135 54.82779397 43.72354126 52.54873657 C43.79103751 27.61119253 43.79103751 27.61119253 49.3125 17.4375 C49.88613281 16.34308594 50.45976562 15.24867188 51.05078125 14.12109375 C57.88263067 3.18192003 67.87185732 -2.99042277 80 -7 C94.52988051 -10.11073323 109.55532824 -8.30246648 122.3984375 -0.7890625 C133.0549071 6.53926044 140.53892547 17.25198804 143 30 C143.82322731 36.54510458 144.14552455 43.01028941 144.12939453 49.60205078 C144.13202301 50.95557396 144.13202301 50.95557396 144.13470459 52.33644104 C144.1390686 55.28941837 144.13620293 58.24233467 144.1328125 61.1953125 C144.13348746 63.27261364 144.13445908 65.3499147 144.13571167 67.42721558 C144.13718158 71.77277379 144.13505817 76.11831138 144.13037109 80.46386719 C144.12469568 85.99080629 144.12794343 91.51769658 144.13394356 97.04463387 C144.13758662 101.33444576 144.13639316 105.62424642 144.13381577 109.91405869 C144.1331557 111.9494922 144.13394215 113.98492678 144.13629532 116.02035904 C144.14685287 127.72449619 143.91635502 139.32800138 143 151 C137.89135467 151.02364554 132.78275835 151.04283607 127.67407227 151.05493164 C125.93480832 151.05997204 124.19554864 151.0668043 122.45629883 151.07543945 C119.96174063 151.08751792 117.46723827 151.09323108 114.97265625 151.09765625 C114.19036148 151.10281754 113.40806671 151.10797882 112.60206604 151.11329651 C110.73432886 151.11349226 108.86670796 151.06199694 107 151 C105.40818872 149.40818872 105.86869096 147.76153942 105.86196899 145.55427551 C105.85651566 144.59394409 105.85106232 143.63361267 105.84544373 142.6441803 C105.8444014 141.58186691 105.84335907 140.51955353 105.84228516 139.42504883 C105.83720444 138.31287994 105.83212372 137.20071106 105.82688904 136.05484009 C105.81615734 133.62994497 105.80754824 131.20503978 105.80076981 128.78013039 C105.7890201 124.94318523 105.76957649 121.10635465 105.74765015 117.26945496 C105.68590867 106.35667757 105.63176471 95.44391045 105.59863281 84.53100586 C105.57830336 77.86430754 105.54239763 71.19784281 105.49787521 64.53125572 C105.48370132 61.98797722 105.47498966 59.44466223 105.47182083 56.90134621 C105.46691693 53.34131941 105.44376978 49.78183965 105.41650391 46.22192383 C105.41951004 45.1697316 105.42251617 44.11753937 105.4256134 43.03346252 C105.36389871 37.6123188 105.09510768 33.66106133 102 29 C98.93329272 26.20388453 96.52623218 25.76360957 92.5 25.9375 C88.92703421 26.18282688 88.00115057 26.99885481 85.3956604 29.59216309 C82.57147652 33.10958337 82.37983598 35.90783043 82.38818359 40.43554688 C82.38251877 41.1552063 82.37685394 41.87486572 82.37101746 42.61633301 C82.35756858 44.98434358 82.37843621 47.35080719 82.3984375 49.71875 C82.39292979 51.3805851 82.3847984 53.04241336 82.37417603 54.70422363 C82.35131064 59.07852666 82.35549258 63.45232989 82.36798096 67.82666016 C82.38628401 74.79773533 82.3759629 81.76851083 82.34212112 88.73951721 C82.33610058 91.15336442 82.34917804 93.56655142 82.36410522 95.98034668 C82.3765903 113.31755669 79.48488248 128.1805143 67 141 C53.71873586 151.4225167 39.5216984 154.31130262 23 153 C14.38971305 151.41722666 7.17932225 147.92141865 0 143 C-0.886875 142.4225 -1.77375 141.845 -2.6875 141.25 C-10.58525712 133.56569578 -16.69481524 122.68926589 -17.13803101 111.52224731 C-17.14949398 110.113984 -17.15568804 108.70567179 -17.15771484 107.29736328 C-17.16279556 106.52613129 -17.16787628 105.75489929 -17.17311096 104.96029663 C-17.18379529 103.28847506 -17.19242303 101.61663937 -17.19923019 99.94479752 C-17.21104433 97.29636478 -17.23050327 94.64809326 -17.25234985 91.99972534 C-17.31388404 84.47073748 -17.36800378 76.94176731 -17.40136719 69.41259766 C-17.42233575 64.80426649 -17.45765436 60.19623158 -17.50212479 55.58806992 C-17.51626513 53.83467983 -17.52500278 52.08123735 -17.52817917 50.32779312 C-17.53309918 47.8720228 -17.55628389 45.41703626 -17.58349609 42.96142578 C-17.58048996 42.24122253 -17.57748383 41.52101929 -17.5743866 40.7789917 C-17.65059038 36.13792856 -18.52519997 32.92967609 -21 29 C-25.01612795 26.32258137 -28.20274224 25.30039991 -33 26 C-37.57734224 28.37669693 -39.45764718 30.13270837 -41 35 C-41.3051419 37.44727838 -41.3051419 37.44727838 -41.2784729 40.00508118 C-41.28963638 40.98799637 -41.30079987 41.97091156 -41.31230164 42.98361206 C-41.31446182 44.05032135 -41.31662201 45.11703064 -41.31884766 46.21606445 C-41.33391609 47.91428093 -41.33391609 47.91428093 -41.34928894 49.64680481 C-41.38015781 53.38562517 -41.39716666 57.12437379 -41.4140625 60.86328125 C-41.43277113 63.45689004 -41.45234432 66.05049273 -41.4727478 68.64408875 C-41.51885876 74.77085849 -41.55625545 80.89762456 -41.58942068 87.02447623 C-41.6276752 94.00154189 -41.6770766 100.97851477 -41.72740483 107.95550215 C-41.83065504 122.3035981 -41.91993786 136.65175687 -42 151 C-47.10863896 151.0246501 -52.21724359 151.04283607 -57.32592773 151.05493164 C-59.06519168 151.05997204 -60.80445136 151.0668043 -62.54370117 151.07543945 C-65.03825937 151.08751792 -67.53276173 151.09323108 -70.02734375 151.09765625 C-70.80963852 151.10281754 -71.59193329 151.10797882 -72.39793396 151.11329651 C-74.26567114 151.11349226 -76.13329204 151.06199694 -78 151 C-79.6036874 149.3963126 -79.13271441 147.695026 -79.14044189 145.47402954 C-79.14615204 144.49568146 -79.15186218 143.51733337 -79.15774536 142.50933838 C-79.15886322 141.426828 -79.15998108 140.34431763 -79.16113281 139.22900391 C-79.16609772 138.09560577 -79.17106262 136.96220764 -79.17617798 135.79446411 C-79.19085367 132.02182417 -79.19761306 128.24922637 -79.203125 124.4765625 C-79.20887512 121.85875446 -79.21463287 119.24094644 -79.22039795 116.62313843 C-79.22998154 111.82449273 -79.23586968 107.02585615 -79.2388947 102.22720206 C-79.24335993 95.18297403 -79.26082893 88.13894155 -79.2898953 81.09477293 C-79.31422738 74.98390001 -79.3218447 68.87310693 -79.32357025 62.76218796 C-79.32658943 60.16997595 -79.33459301 57.57776461 -79.34775543 54.98558426 C-79.36490979 51.34522223 -79.3629117 47.70532804 -79.35644531 44.06494141 C-79.3656601 43.00267334 -79.37487488 41.94040527 -79.3843689 40.84594727 C-79.31151357 27.67836777 -75.39961413 15.41012027 -66.25 5.6875 C-48.35310257 -10.94809228 -20.55328233 -12.97931687 0 0 Z " fill="#0149AB" transform="translate(218,144)"/>
<path d="M0 0 C4.47471329 3.32143667 7.89401217 7.88164465 8.89453125 13.40625 C9.4244682 19.7654934 8.57472501 24.11809466 4.89453125 29.40625 C0.6159586 34.03648616 -3.67346241 36.20690522 -9.91796875 36.71875 C-15.20462556 36.53954129 -19.82900464 35.40067431 -23.87109375 31.859375 C-28.61658162 26.65316015 -30.34908784 22.10594847 -30.10546875 15.03125 C-29.40683422 9.19606387 -27.50928342 5.32177559 -23.10546875 1.40625 C-15.63479803 -3.45933444 -7.94603297 -4.38834168 0 0 Z " fill="#0249AA" transform="translate(353.10546875,309.59375)"/>
<path d="M0 0 C3.3125 -0.25 3.3125 -0.25 7 0 C9.08531222 2.07665721 9.91401687 3.44883276 10.36914349 6.36627579 C10.36637811 7.24750988 10.36361273 8.12874397 10.36076355 9.03668213 C10.36488754 10.05187927 10.36901154 11.06707642 10.3732605 12.11303711 C10.36247467 13.22074463 10.35168884 14.32845215 10.34057617 15.46972656 C10.34101425 16.64073914 10.34145233 17.81175171 10.34190369 19.01824951 C10.33981208 22.89254371 10.31646262 26.7664063 10.29296875 30.640625 C10.28570863 33.32533528 10.28295584 36.01004508 10.28010559 38.69476318 C10.27078392 45.0412458 10.24616861 51.38757326 10.21605712 57.73398757 C10.18251681 64.96003942 10.16602805 72.18609871 10.15097082 79.41220903 C10.11961905 94.27490292 10.06460556 109.13740891 10 124 C19.9 124 29.8 124 40 124 C40 124.33 40 124.66 40 125 C35.74607233 125.16727437 31.49196191 125.32786758 27.23754883 125.48217773 C25.78923699 125.53566237 24.34099225 125.59099659 22.89282227 125.64819336 C20.81541418 125.72992512 18.7378583 125.80507768 16.66015625 125.87890625 C14.78275757 125.94960327 14.78275757 125.94960327 12.86743164 126.02172852 C10 126 10 126 9 125 C8.8986943 123.52084284 8.86648412 122.03689089 8.86196899 120.55427551 C8.85651566 119.59394409 8.85106232 118.63361267 8.84544373 117.6441803 C8.8444014 116.58186691 8.84335907 115.51955353 8.84228516 114.42504883 C8.83466408 112.7567955 8.83466408 112.7567955 8.82688904 111.05484009 C8.81615734 108.62994497 8.80754824 106.20503978 8.80076981 103.78013039 C8.7890201 99.94318523 8.76957649 96.10635465 8.74765015 92.26945496 C8.68590867 81.35667757 8.63176471 70.44391045 8.59863281 59.53100586 C8.57830336 52.86430754 8.54239763 46.19784281 8.49787521 39.53125572 C8.48370132 36.98797722 8.47498966 34.44466223 8.47182083 31.90134621 C8.46691693 28.34131941 8.44376978 24.78183965 8.41650391 21.22192383 C8.41951004 20.1697316 8.42251617 19.11753937 8.4256134 18.03346252 C8.36397621 12.61912642 8.11432444 8.64144494 5 4 C2.44860147 1.65674336 2.44860147 1.65674336 0 0 Z " fill="#12478E" transform="translate(315,169)"/>
<path d="M0 0 C0.33 0 0.66 0 1 0 C0.86177801 3.14621682 0.71314916 6.29185566 0.5625 9.4375 C0.50352539 10.78424805 0.50352539 10.78424805 0.44335938 12.15820312 C0.40146484 13.01220703 0.35957031 13.86621094 0.31640625 14.74609375 C0.26141968 15.93223267 0.26141968 15.93223267 0.20532227 17.14233398 C0 19 0 19 -1 20 C-1.12411582 22.23857356 -1.17803023 24.48105484 -1.20532227 26.72290039 C-1.22017166 27.77650505 -1.22017166 27.77650505 -1.23532104 28.85139465 C-1.26702122 31.18344704 -1.29172688 33.51551984 -1.31640625 35.84765625 C-1.33696844 37.46049035 -1.35796471 39.07331896 -1.37937927 40.68614197 C-1.43467592 44.93909275 -1.48405156 49.19209277 -1.53222656 53.44512939 C-1.58238631 57.78182375 -1.63810115 62.11844627 -1.69335938 66.45507812 C-1.80103375 74.96999141 -1.90245795 83.48496465 -2 92 C-1.34 92.33 -0.68 92.66 0 93 C-3.6125362 94.84827434 -7.2089881 96.55049545 -11 98 C-10.21625 97.236875 -9.4325 96.47375 -8.625 95.6875 C-4.4180957 91.38043131 -3.74803206 89.20262282 -3.71289062 83.28808594 C-3.70605759 82.60948517 -3.69922455 81.9308844 -3.69218445 81.23171997 C-3.67859521 79.75690777 -3.6695427 78.28204841 -3.66447449 76.80718231 C-3.65615914 74.4587136 -3.63562074 72.11062895 -3.61193848 69.76226807 C-3.56369307 64.75823639 -3.53088101 59.75416484 -3.5 54.75 C-3.46410955 48.98769772 -3.42161799 43.22557733 -3.36405945 37.46344757 C-3.34432149 35.17561697 -3.33573315 32.88793362 -3.32775879 30.60003662 C-3.17493189 9.52479566 -3.17493189 9.52479566 0 0 Z " fill="#08448F" transform="translate(265,166)"/>
<path d="M0 0 C0.66 0.33 1.32 0.66 2 1 C1.18860062 1.83205963 0.37720123 2.66411926 -0.45878601 3.52139282 C-3.36439636 7.02968591 -3.71520459 10.20150564 -3.65942383 14.65771484 C-3.66990753 15.39986237 -3.68039124 16.14200989 -3.69119263 16.90664673 C-3.71982624 19.34184175 -3.7136655 21.7756051 -3.70703125 24.2109375 C-3.72015349 25.90631888 -3.73545934 27.60168465 -3.75285339 29.29702759 C-3.79265517 33.74566925 -3.80289069 38.19390149 -3.80688477 42.6427002 C-3.81622535 47.18770733 -3.85364466 51.73247483 -3.88867188 56.27734375 C-3.95319849 65.18488468 -3.98647893 74.09224579 -4 83 C-6.4322644 80.5677356 -6.23276468 79.30161592 -6.24092102 75.98364258 C-6.22789192 74.94022705 -6.22789192 74.94022705 -6.21459961 73.87573242 C-6.21316956 73.14220047 -6.2117395 72.40866852 -6.21026611 71.65290833 C-6.20206014 69.22022542 -6.17825484 66.78802375 -6.15234375 64.35546875 C-6.13886601 62.66636798 -6.12556784 60.97726577 -6.11244202 59.28816223 C-6.08192715 55.74301332 -6.04254284 52.19807868 -5.99829102 48.65307617 C-5.94327579 44.11350763 -5.92033429 39.57439427 -5.9054327 35.03454113 C-5.88867021 31.54355231 -5.8496311 28.05306769 -5.80444527 24.56234169 C-5.78644578 22.88909907 -5.77656071 21.21574858 -5.77497673 19.5424099 C-5.77043359 17.19813449 -5.73461406 14.85628474 -5.69116211 12.51245117 C-5.69664566 11.82291351 -5.70212921 11.13337585 -5.70777893 10.42294312 C-5.59678606 6.49401075 -5.05748706 5.06712394 -2.45680237 2.0304718 C-1.64605759 1.36041611 -0.83531281 0.69036041 0 0 Z " fill="#134188" transform="translate(304,170)"/>
<path d="M0 0 C6 9 6 9 6 12 C6.99 11.67 7.98 11.34 9 11 C9.33 12.65 9.66 14.3 10 16 C10.66 16 11.32 16 12 16 C12 16.99 12 17.98 12 19 C12.763125 19.0825 13.52625 19.165 14.3125 19.25 C17.54715191 20.15269355 18.35099265 21.13593461 20 24 C20 24.66 20 25.32 20 26 C20.99 26 21.98 26 23 26 C23 26.66 23 27.32 23 28 C12.20010144 24.6250317 6.44091246 15.99384752 1.0625 6.625 C0 4 0 4 0 0 Z " fill="#104693" transform="translate(203,263)"/>
<path d="M0 0 C0 0.66 0 1.32 0 2 C-0.928125 2.37125 -1.85625 2.7425 -2.8125 3.125 C-6.5260303 5.30942959 -7.42687504 7.06718759 -9 11 C-9.66 11 -10.32 11 -11 11 C-11 14.63 -11 18.26 -11 22 C-10.34 22 -9.68 22 -9 22 C-8.7525 22.86625 -8.505 23.7325 -8.25 24.625 C-6.93221387 28.18302254 -5.19813178 30.9226155 -3 34 C-7.75580457 32.13164821 -10.07240643 28.85518713 -12.3125 24.375 C-13.48618167 18.61329 -13.54291768 12.85947917 -10.6953125 7.58203125 C-5.14344262 0 -5.14344262 0 0 0 Z " fill="#15488C" transform="translate(336,309)"/>
<path d="M0 0 C0.7425 0.185625 1.485 0.37125 2.25 0.5625 C4.94990963 0.99203108 6.44631077 0.85122974 9 0 C6.46563702 2.98880048 3.72220176 4.16279579 0.125 5.625 C-0.90367187 6.05039062 -1.93234375 6.47578125 -2.9921875 6.9140625 C-8.69751516 8.97390807 -13.81442009 9.12786047 -19.8125 9.0625 C-20.60076172 9.05798828 -21.38902344 9.05347656 -22.20117188 9.04882812 C-24.13414761 9.03711312 -26.06708393 9.01917998 -28 9 C-28 8.67 -28 8.34 -28 8 C-27.08504761 7.91697632 -27.08504761 7.91697632 -26.15161133 7.83227539 C-23.37164727 7.57844684 -20.59207876 7.32051225 -17.8125 7.0625 C-16.85279297 6.97548828 -15.89308594 6.88847656 -14.90429688 6.79882812 C-13.97294922 6.71181641 -13.04160156 6.62480469 -12.08203125 6.53515625 C-11.22843018 6.456604 -10.3748291 6.37805176 -9.49536133 6.29711914 C-6.92942603 5.99159686 -4.4931571 5.69001987 -2 5 C-0.62533375 2.52363988 -0.62533375 2.52363988 0 0 Z " fill="#194A8D" transform="translate(270,288)"/>
<path d="M0 0 C-0.80824219 0.32613281 -1.61648438 0.65226563 -2.44921875 0.98828125 C-3.51785156 1.42527344 -4.58648437 1.86226562 -5.6875 2.3125 C-6.74324219 2.74175781 -7.79898437 3.17101562 -8.88671875 3.61328125 C-11.7537809 4.89032901 -14.35090386 6.32404122 -17 8 C-17.66 7.34 -18.32 6.68 -19 6 C-17.06374902 5.01836578 -15.12595461 4.03977546 -13.1875 3.0625 C-12.10855469 2.51722656 -11.02960938 1.97195312 -9.91796875 1.41015625 C-6.06356352 -0.45254829 -4.08218491 -1.26688497 0 0 Z " fill="#144790" transform="translate(302,138)"/>
<path d="M0 0 C3.19199167 2.41556126 5.74716687 4.68003538 8 8 C7.67 8.66 7.34 9.32 7 10 C6.01 10 5.02 10 4 10 C4 9.34 4 8.68 4 8 C2.68 7.34 1.36 6.68 0 6 C0.66 5.67 1.32 5.34 2 5 C2 4.34 2 3.68 2 3 C1.34 3 0.68 3 0 3 C0 2.01 0 1.02 0 0 Z " fill="#0C4598" transform="translate(347,150)"/>
<path d="M0 0 C3.3125 -0.25 3.3125 -0.25 7 0 C9 1.75 9 1.75 10 4 C9.5625 6.140625 9.5625 6.140625 9 8 C7.87411986 7.04270084 6.7493285 6.08412105 5.625 5.125 C4.99851562 4.59132812 4.37203125 4.05765625 3.7265625 3.5078125 C2.44163349 2.38567993 1.20628025 1.20628025 0 0 Z " fill="#10479A" transform="translate(315,169)"/>
<path d="M0 0 C4.59306496 1.4859916 7.43569245 3.85014682 11 7 C8 7 8 7 6 5.9375 C3.87202708 4.65988843 3.87202708 4.65988843 1 6 C0.67 4.02 0.34 2.04 0 0 Z " fill="#0F4999" transform="translate(336,142)"/>
<path d="M0 0 C0.474375 0.7425 0.94875 1.485 1.4375 2.25 C4.80323681 5.86201023 8.45013665 7.25977449 13 9 C13 9.33 13 9.66 13 10 C4.88990826 9.06422018 4.88990826 9.06422018 2 7 C0.1875 4.5 0.1875 4.5 -1 2 C-0.67 1.34 -0.34 0.68 0 0 Z " fill="#134A95" transform="translate(238,255)"/>
<path d="M0 0 C0 3.10551666 -0.5393715 4.35261084 -2 7 C-2.99 7 -3.98 7 -5 7 C-5.66 8.65 -6.32 10.3 -7 12 C-7.66 11.67 -8.32 11.34 -9 11 C-8.06558465 9.72689688 -7.12732889 8.456612 -6.1875 7.1875 C-5.66542969 6.47980469 -5.14335937 5.77210938 -4.60546875 5.04296875 C-3.16871123 3.21468607 -1.68184237 1.60103312 0 0 Z " fill="#144992" transform="translate(154,148)"/>
<path d="M0 0 C2.64 0 5.28 0 8 0 C6.8553125 0.8971875 6.8553125 0.8971875 5.6875 1.8125 C3.6516425 3.46959332 1.8021721 5.10297674 0 7 C0 4.69 0 2.38 0 0 Z " fill="#0B4797" transform="translate(177,169)"/>
<path d="M0 0 C2.97 0.33 5.94 0.66 9 1 C5 3 5 3 3 3 C3 3.66 3 4.32 3 5 C2.34 4.67 1.68 4.34 1 4 C0.67 2.68 0.34 1.36 0 0 Z " fill="#0C4899" transform="translate(320,137)"/>
<path d="M0 0 C2.54414039 2.21229599 3.54746847 3.65126671 4 7 C4.07182357 9.67286275 4.04458486 12.32490846 4 15 C3.67 15 3.34 15 3 15 C1.85948394 10.01716284 0.77774134 5.05531868 0 0 Z " fill="#144492" transform="translate(358,316)"/>
<path d="M0 0 C0.7425 0.185625 1.485 0.37125 2.25 0.5625 C4.94990963 0.99203108 6.44631077 0.85122974 9 0 C7.36587557 1.70840281 6.13093906 2.93453047 4 4 C2.00039988 4.039992 -0.00047242 4.04346799 -2 4 C-1.34 2.68 -0.68 1.36 0 0 Z " fill="#0C489B" transform="translate(270,288)"/>
<path d="M0 0 C0.66 0 1.32 0 2 0 C0.54744301 3.82946843 -1.42895561 5.12050295 -5 7 C-4.67 5.35 -4.34 3.7 -4 2 C-2.68 2 -1.36 2 0 2 C0 1.34 0 0.68 0 0 Z " fill="#114490" transform="translate(285,281)"/>
<path d="M0 0 C1.27875 -0.061875 2.5575 -0.12375 3.875 -0.1875 C4.95394531 -0.23970703 4.95394531 -0.23970703 6.0546875 -0.29296875 C6.69664062 -0.19628906 7.33859375 -0.09960938 8 0 C8.66 0.99 9.32 1.98 10 3 C3.375 2.25 3.375 2.25 0 0 Z " fill="#114793" transform="translate(230,293)"/>
</svg>
